<svg width="105" height="140" viewBox="0 0 105 140" fill="none" xmlns="http://www.w3.org/2000/svg">
<g filter="url(#filter0_d_0_3376)">
<path fill-rule="evenodd" clip-rule="evenodd" d="M0 11.5C0 5.53533 4.8237 0.700012 10.7884 0.700012C14.2884 0.700012 18.9119 0.700012 25.0146 0.700012C41.838 0.700012 76.1278 0.700012 93.6179 0.700012C99.5825 0.700012 104.4 5.53534 104.4 11.5V128.5C104.4 134.465 99.5647 139.3 93.6 139.3H10.8C4.83533 139.3 0 134.465 0 128.5V11.5Z" fill="url(#paint0_linear_0_3376)"/>
<path d="M10.7884 0.250012C4.57454 0.250012 -0.45 5.28744 -0.45 11.5V128.5C-0.45 134.713 4.5868 139.75 10.8 139.75H93.6C99.8132 139.75 104.85 134.713 104.85 128.5V11.5C104.85 5.28778 99.832 0.250012 93.6179 0.250012H93.5152H93.4121H93.3087H93.2049H93.1007H92.9961H92.8912H92.7858H92.6801H92.5741H92.4676H92.3608H92.2537H92.1461H92.0382H91.93H91.8214H91.7124H91.6031H91.4934H91.3833H91.2729H91.1622H91.0511H90.9397H90.8279H90.7157H90.6033H90.4904H90.3773H90.2638H90.15H90.0358H89.9213H89.8064H89.6913H89.5758H89.46H89.3438H89.2273H89.1105H88.9934H88.876H88.7582H88.6402H88.5218H88.4031H88.284H88.1647H88.0451H87.9251H87.8049H87.6843H87.5635H87.4423H87.3208H87.1991H87.077H86.9547H86.832H86.7091H86.5858H86.4623H86.3385H86.2144H86.09H85.9654H85.8404H85.7152H85.5897H85.4639H85.3379H85.2115H85.0849H84.958H84.8309H84.7035H84.5758H84.4479H84.3196H84.1912H84.0624H83.9334H83.8042H83.6747H83.5449H83.4149H83.2847H83.1542H83.0234H82.8924H82.7611H82.6296H82.4979H82.3659H82.2337H82.1013H81.9686H81.8356H81.7025H81.5691H81.4355H81.3016H81.1676H81.0333H80.8987H80.764H80.629H80.4938H80.3584H80.2228H80.087H79.9509H79.8147H79.6782H79.5415H79.4047H79.2676H79.1303H78.9928H78.8551H78.7172H78.5791H78.4408H78.3023H78.1637H78.0248H77.8857H77.7465H77.6071H77.4675H77.3277H77.1877H77.0475H76.9072H76.7666H76.626H76.4851H76.344H76.2028H76.0614H75.9199H75.7782H75.6363H75.4942H75.352H75.2096H75.0671H74.9244H74.7816H74.6386H74.4954H74.3521H74.2086H74.065H73.9213H73.7774H73.6333H73.4892H73.3448H73.2004H73.0558H72.911H72.7661H72.6211H72.476H72.3307H72.1853H72.0398H71.8941H71.7484H71.6025H71.4565H71.3103H71.1641H71.0177H70.8712H70.7246H70.5779H70.4311H70.2841H70.1371H69.9899H69.8427H69.6953H69.5479H69.4003H69.2527H69.1049H68.9571H68.8092H68.6611H68.513H68.3648H68.2165H68.0681H67.9197H67.7711H67.6225H67.4738H67.325H67.1761H67.0272H66.8782H66.7291H66.5799H66.4307H66.2814H66.1321H65.9827H65.8332H65.6836H65.534H65.3844H65.2346H65.0849H64.935H64.7851H64.6352H64.4852H64.3352H64.1851H64.035H63.8849H63.7347H63.5844H63.4341H63.2838H63.1335H62.9831H62.8327H62.6822H62.5317H62.3812H62.2307H62.0801H61.9296H61.779H61.6283H61.4777H61.327H61.1764H61.0257H60.875H60.7243H60.5736H60.4228H60.2721H60.1214H59.9706H59.8199H59.6691H59.5184H59.3677H59.2169H59.0662H58.9155H58.7648H58.6141H58.4634H58.3127H58.1621H58.0114H57.8608H57.7102H57.5596H57.4091H57.2585H57.108H56.9575H56.8071H56.6567H56.5063H56.3559H56.2056H56.0553H55.9051H55.7549H55.6047H55.4546H55.3045H55.1545H55.0045H54.8546H54.7047H54.5549H54.4051H54.2554H54.1057H53.9561H53.8065H53.6571H53.5076H53.3583H53.209H53.0598H52.9106H52.7615H52.6125H52.4636H52.3147H52.1659H52.0172H51.8686H51.72H51.5715H51.4232H51.2749H51.1267H50.9785H50.8305H50.6826H50.5347H50.387H50.2393H50.0918H49.9443H49.7969H49.6497H49.5025H49.3555H49.2086H49.0617H48.915H48.7684H48.6219H48.4755H48.3293H48.1831H48.0371H47.8912H47.7454H47.5998H47.4542H47.3088H47.1636H47.0184H46.8734H46.7285H46.5838H46.4392H46.2947H46.1504H46.0062H45.8621H45.7182H45.5745H45.4309H45.2874H45.1441H45.0009H44.8579H44.7151H44.5724H44.4298H44.2874H44.1452H44.0032H43.8613H43.7195H43.578H43.4366H43.2954H43.1543H43.0134H42.8727H42.7322H42.5919H42.4517H42.3117H42.1719H42.0323H41.8928H41.7536H41.6145H41.4756H41.337H41.1985H41.0602H40.9221H40.7842H40.6465H40.509H40.3717H40.2346H40.0977H39.961H39.8245H39.6883H39.5522H39.4164H39.2808H39.1453H39.0101H38.8752H38.7404H38.6059H38.4716H38.3375H38.2036H38.07H37.9366H37.8035H37.6705H37.5378H37.4054H37.2731H37.1411H37.0094H36.8779H36.7466H36.6156H36.4848H36.3543H36.2241H36.094H35.9643H35.8348H35.7055H35.5765H35.4478H35.3193H35.1911H35.0631H34.9354H34.808H34.6808H34.5539H34.4273H34.301H34.1749H34.0491H33.9236H33.7984H33.6734H33.5487H33.4243H33.3002H33.1764H33.0529H32.9296H32.8067H32.684H32.5617H32.4396H32.3178H32.1964H32.0752H31.9543H31.8337H31.7135H31.5935H31.4739H31.3545H31.2355H31.1168H30.9984H30.8803H30.7625H30.6451H30.5279H30.4111H30.2946H30.1785H30.0626H29.9471H29.832H29.7171H29.6026H29.4884H29.3746H29.2611H29.1479H29.0351H28.9226H28.8104H28.6986H28.5872H28.4761H28.3653H28.2549H28.1448H28.0351H27.9258H27.8168H27.7082H27.5999H27.492H27.3844H27.2773H27.1705H27.064H26.9579H26.8522H26.7469H26.6419H26.5373H26.4331H26.3293H26.2258H26.1228H26.0201H25.9178H25.8159H25.7143H25.6132H25.5124H25.4121H25.3121H25.2125H25.1134H25.0146H24.9789H24.9432H24.9075H24.8718H24.8362H24.8007H24.7651H24.7296H24.6942H24.6587H24.6233H24.5879H24.5526H24.5173H24.482H24.4468H24.4116H24.3764H24.3413H24.3062H24.2711H24.2361H24.2011H24.1661H24.1312H24.0963H24.0614H24.0266H23.9918H23.957H23.9223H23.8876H23.8529H23.8183H23.7837H23.7491H23.7146H23.6801H23.6456H23.6112H23.5768H23.5424H23.5081H23.4738H23.4395H23.4053H23.3711H23.3369H23.3028H23.2687H23.2346H23.2006H23.1666H23.1326H23.0987H23.0648H23.0309H22.9971H22.9633H22.9295H22.8958H22.8621H22.8284H22.7947H22.7611H22.7276H22.694H22.6605H22.627H22.5936H22.5602H22.5268H22.4935H22.4601H22.4269H22.3936H22.3604H22.3272H22.2941H22.261H22.2279H22.1948H22.1618H22.1288H22.0959H22.0629H22.03H21.9972H21.9644H21.9316H21.8988H21.8661H21.8334H21.8007H21.7681H21.7355H21.7029H21.6704H21.6379H21.6054H21.573H21.5406H21.5082H21.4759H21.4436H21.4113H21.3791H21.3469H21.3147H21.2825H21.2504H21.2183H21.1863H21.1543H21.1223H21.0903H21.0584H21.0265H20.9947H20.9628H20.931H20.8993H20.8676H20.8359H20.8042H20.7726H20.741H20.7094H20.6778H20.6463H20.6149H20.5834H20.552H20.5206H20.4893H20.458H20.4267H20.3954H20.3642H20.333H20.3019H20.2707H20.2396H20.2086H20.1775H20.1465H20.1156H20.0846H20.0537H20.0229H19.992H19.9612H19.9304H19.8997H19.869H19.8383H19.8076H19.777H19.7464H19.7158H19.6853H19.6548H19.6243H19.5939H19.5635H19.5331H19.5028H19.4725H19.4422H19.412H19.3817H19.3516H19.3214H19.2913H19.2612H19.2311H19.2011H19.1711H19.1411H19.1112H19.0813H19.0514H19.0216H18.9918H18.962H18.9322H18.9025H18.8728H18.8432H18.8135H18.7839H18.7544H18.7248H18.6953H18.6658H18.6364H18.607H18.5776H18.5483H18.5189H18.4896H18.4604H18.4312H18.402H18.3728H18.3437H18.3146H18.2855H18.2564H18.2274H18.1984H18.1695H18.1406H18.1117H18.0828H18.054H18.0252H17.9964H17.9677H17.939H17.9103H17.8816H17.853H17.8244H17.7959H17.7673H17.7388H17.7104H17.6819H17.6535H17.6252H17.5968H17.5685H17.5402H17.5119H17.4837H17.4555H17.4274H17.3992H17.3711H17.343H17.315H17.287H17.259H17.231H17.2031H17.1752H17.1474H17.1195H17.0917H17.0639H17.0362H17.0085H16.9808H16.9531H16.9255H16.8979H16.8703H16.8428H16.8153H16.7878H16.7604H16.733H16.7056H16.6782H16.6509H16.6236H16.5963H16.5691H16.5419H16.5147H16.4875H16.4604H16.4333H16.4062H16.3792H16.3522H16.3252H16.2983H16.2714H16.2445H16.2176H16.1908H16.164H16.1372H16.1105H16.0838H16.0571H16.0304H16.0038H15.9772H15.9507H15.9241H15.8976H15.8711H15.8447H15.8183H15.7919H15.7655H15.7392H15.7129H15.6866H15.6604H15.6342H15.608H15.5818H15.5557H15.5296H15.5035H15.4775H15.4515H15.4255H15.3995H15.3736H15.3477H15.3218H15.296H15.2702H15.2444H15.2186H15.1929H15.1672H15.1416H15.1159H15.0903H15.0647H15.0392H15.0137H14.9882H14.9627H14.9373H14.9119H14.8865H14.8611H14.8358H14.8105H14.7852H14.76H14.7348H14.7096H14.6845H14.6593H14.6342H14.6092H14.5841H14.5591H14.5342H14.5092H14.4843H14.4594H14.4345H14.4097H14.3849H14.3601H14.3353H14.3106H14.2859H14.2612H14.2366H14.212H14.1874H14.1628H14.1383H14.1138H14.0893H14.0649H14.0405H14.0161H13.9917H13.9674H13.9431H13.9188H13.8945H13.8703H13.8461H13.8219H13.7978H13.7737H13.7496H13.7256H13.7015H13.6775H13.6536H13.6296H13.6057H13.5818H13.558H13.5341H13.5103H13.4865H13.4628H13.4391H13.4154H13.3917H13.3681H13.3445H13.3209H13.2973H13.2738H13.2503H13.2268H13.2034H13.1799H13.1566H13.1332H13.1099H13.0865H13.0633H13.04H13.0168H12.9936H12.9704H12.9473H12.9241H12.9011H12.878H12.855H12.8319H12.809H12.786H12.7631H12.7402H12.7173H12.6945H12.6716H12.6489H12.6261H12.6033H12.5806H12.558H12.5353H12.5127H12.4901H12.4675H12.4449H12.4224H12.3999H12.3775H12.355H12.3326H12.3102H12.2879H12.2655H12.2432H12.2209H12.1987H12.1765H12.1543H12.1321H12.1099H12.0878H12.0657H12.0437H12.0216H11.9996H11.9776H11.9557H11.9337H11.9118H11.8899H11.8681H11.8463H11.8245H11.8027H11.7809H11.7592H11.7375H11.7159H11.6942H11.6726H11.651H11.6294H11.6079H11.5864H11.5649H11.5435H11.522H11.5006H11.4792H11.4579H11.4366H11.4153H11.394H11.3727H11.3515H11.3303H11.3092H11.288H11.2669H11.2458H11.2247H11.2037H11.1827H11.1617H11.1407H11.1198H11.0989H11.078H11.0572H11.0363H11.0155H10.9947H10.974H10.9533H10.9326H10.9119H10.8912H10.8706H10.85H10.8294H10.8089H10.7884Z" stroke="white" stroke-opacity="0.2" stroke-width="0.9"/>
</g>
<defs>
<filter id="filter0_d_0_3376" x="-22.4999" y="-21.8" width="149.4" height="183.6" filterUnits="userSpaceOnUse" color-interpolation-filters="sRGB">
<feFlood flood-opacity="0" result="BackgroundImageFix"/>
<feColorMatrix in="SourceAlpha" type="matrix" values="0 0 0 0 0 0 0 0 0 0 0 0 0 0 0 0 0 0 127 0" result="hardAlpha"/>
<feOffset/>
<feGaussianBlur stdDeviation="10.8"/>
<feColorMatrix type="matrix" values="0 0 0 0 1 0 0 0 0 0.510777 0 0 0 0 0.892795 0 0 0 0.235299 0"/>
<feBlend mode="normal" in2="BackgroundImageFix" result="effect1_dropShadow_0_3376"/>
<feBlend mode="normal" in="SourceGraphic" in2="effect1_dropShadow_0_3376" result="shape"/>
</filter>
<linearGradient id="paint0_linear_0_3376" x1="0" y1="0.700012" x2="0" y2="139.3" gradientUnits="userSpaceOnUse">
<stop stop-opacity="0.01"/>
<stop offset="0.620392" stop-color="#04061A" stop-opacity="0.01"/>
<stop offset="0.766814" stop-color="#060925" stop-opacity="0.558287"/>
<stop offset="1" stop-color="#15072F"/>
</linearGradient>
</defs>
</svg>
